<svg version="1.1" xmlns="http://www.w3.org/2000/svg" xmlns:xlink="http://www.w3.org/1999/xlink">
    <defs>
        <symbol id="icon-star-full" viewBox="0 0 16 16">
            <path d="M8.00001 3.61354L8.95841 6.3652L9.13371 6.86851H9.66668H12.5206L10.3106 8.62807L9.91741 8.94115L10.0575 9.42387L10.8685 12.2179L8.41985 10.5637L8.00001 10.2801L7.58017 10.5637L5.13155 12.2179L5.94251 9.42387L6.08261 8.94115L5.68939 8.62807L3.47942 6.86851H6.33334H6.86631L7.04161 6.3652L8.00001 3.61354Z" fill="white" stroke="white" stroke-width="1.5"/>
        </symbol>
        <symbol id="icon-star-empty" viewBox="0 0 16 16">
            <path d="M8.00001 3.61354L8.95841 6.3652L9.13371 6.86851H9.66668H12.5206L10.3106 8.62807L9.91741 8.94115L10.0575 9.42387L10.8685 12.2179L8.41985 10.5637L8.00001 10.2801L7.58017 10.5637L5.13155 12.2179L5.94251 9.42387L6.08261 8.94115L5.68939 8.62807L3.47942 6.86851H6.33334H6.86631L7.04161 6.3652L8.00001 3.61354Z" fill="black" stroke="black" stroke-width="1.5"/>
        </symbol>
        <symbol id="icon-home" viewBox="0 0 20 20">
            <path fill-rule="evenodd" clip-rule="evenodd" d="M17.7288 7.82923L15.8639 6.42294V2.53465H13.1992V4.41232L9.99982 2L2.26804 7.82923C2.10858 7.97709 2.01253 8.18091 2 8.39801V17.3008C2.00078 17.6846 2.31152 17.9956 2.69533 17.9968H17.3015C17.6853 17.9956 17.996 17.6846 17.9968 17.3008V8.39872C17.9845 8.18137 17.8884 7.97726 17.7288 7.82923Z" stroke="white" stroke-width="1.5" stroke-linecap="round" stroke-linejoin="round"/>
        </symbol>
        <symbol id="icon-search" viewBox="0 0 16 16">
            <path d="M11.742 10.344a6.5 6.5 0 1 0-1.397 1.398h-.001c.03.04.062.078.098.115l3.85 3.85a1 1 0 0 0 1.415-1.414l-3.85-3.85a1.007 1.007 0 0 0-.115-.1zM12 6.5a5.5 5.5 0 1 1-11 0 5.5 5.5 0 0 1 11 0z"/>
        </symbol>
        <symbol id="icon-favourite" viewBox="0 0 32 32">
            <path d="M16 8L18 13.7422H24L19.3333 17.4578L21 23.2L16 19.8222L11 23.2L12.6667 17.4578L8 13.7422H14L16 8Z" stroke="white" stroke-width="1.5" stroke-linecap="round" stroke-linejoin="round"/>
        </symbol>
        <symbol id="icon-movie" viewBox="0 0 18 18">
            <path d="M2 18V2" stroke="white" stroke-width="1.5" stroke-linecap="round" stroke-linejoin="round"/>
            <path d="M18 2V18" stroke="white" stroke-width="1.5" stroke-linecap="round" stroke-linejoin="round"/>
            <path d="M6.26666 2H13.7333V8.4H6.26666V2Z" stroke="white" stroke-width="1.5" stroke-linecap="round" stroke-linejoin="round"/>
            <path d="M6.26666 11.6H13.7333V18H6.26666V11.6Z" stroke="white" stroke-width="1.5" stroke-linecap="round" stroke-linejoin="round"/>
            <path d="M4.39999 3.6C4.39999 3.65274 4.38435 3.70429 4.35505 3.74815C4.32574 3.792 4.2841 3.82618 4.23537 3.84636C4.18664 3.86655 4.13302 3.87183 4.0813 3.86154C4.02957 3.85125 3.98205 3.82585 3.94476 3.78856C3.90746 3.75126 3.88207 3.70375 3.87178 3.65202C3.86149 3.60029 3.86677 3.54667 3.88695 3.49795C3.90714 3.44922 3.94132 3.40757 3.98517 3.37827C4.02902 3.34897 4.08058 3.33333 4.13332 3.33333C4.20404 3.33333 4.27187 3.36142 4.32188 3.41143C4.37189 3.46144 4.39999 3.52927 4.39999 3.6Z" stroke="white" stroke-width="1.5" stroke-linecap="round" stroke-linejoin="round"/>
            <path d="M4.39999 7.86667C4.39999 7.91941 4.38435 7.97096 4.35505 8.01482C4.32574 8.05867 4.2841 8.09285 4.23537 8.11303C4.18664 8.13322 4.13302 8.1385 4.0813 8.12821C4.02957 8.11792 3.98205 8.09252 3.94476 8.05523C3.90746 8.01793 3.88207 7.97042 3.87178 7.91869C3.86149 7.86696 3.86677 7.81334 3.88695 7.76462C3.90714 7.71589 3.94132 7.67424 3.98517 7.64494C4.02902 7.61564 4.08058 7.6 4.13332 7.6C4.20404 7.6 4.27187 7.62809 4.32188 7.6781C4.37189 7.72811 4.39999 7.79594 4.39999 7.86667Z" stroke="white" stroke-width="1.5" stroke-linecap="round" stroke-linejoin="round"/>
            <path d="M4.39999 12.1333C4.39999 12.1861 4.38435 12.2376 4.35505 12.2815C4.32574 12.3253 4.2841 12.3595 4.23537 12.3797C4.18664 12.3999 4.13302 12.4052 4.0813 12.3949C4.02957 12.3846 3.98205 12.3592 3.94476 12.3219C3.90746 12.2846 3.88207 12.2371 3.87178 12.1854C3.86149 12.1336 3.86677 12.08 3.88695 12.0313C3.90714 11.9826 3.94132 11.9409 3.98517 11.9116C4.02902 11.8823 4.08058 11.8667 4.13332 11.8667C4.20404 11.8667 4.27187 11.8948 4.32188 11.9448C4.37189 11.9948 4.39999 12.0626 4.39999 12.1333Z" stroke="white" stroke-width="1.5" stroke-linecap="round" stroke-linejoin="round"/>
            <path d="M4.39999 16.4C4.39999 16.4527 4.38435 16.5043 4.35505 16.5482C4.32574 16.592 4.2841 16.6262 4.23537 16.6464C4.18664 16.6665 4.13302 16.6718 4.0813 16.6615C4.02957 16.6513 3.98205 16.6259 3.94476 16.5886C3.90746 16.5513 3.88207 16.5037 3.87178 16.452C3.86149 16.4003 3.86677 16.3467 3.88695 16.2979C3.90714 16.2492 3.94132 16.2076 3.98517 16.1783C4.02902 16.149 4.08058 16.1333 4.13332 16.1333C4.20404 16.1333 4.27187 16.1614 4.32188 16.2114C4.37189 16.2614 4.39999 16.3293 4.39999 16.4Z" stroke="white" stroke-width="1.5" stroke-linecap="round" stroke-linejoin="round"/>
            <path d="M16.1333 3.6C16.1333 3.65274 16.1177 3.70429 16.0884 3.74815C16.0591 3.792 16.0174 3.82618 15.9687 3.84636C15.92 3.86655 15.8664 3.87183 15.8146 3.86154C15.7629 3.85125 15.7154 3.82585 15.6781 3.78856C15.6408 3.75126 15.6154 3.70375 15.6051 3.65202C15.5948 3.60029 15.6001 3.54667 15.6203 3.49795C15.6405 3.44922 15.6747 3.40757 15.7185 3.37827C15.7624 3.34897 15.8139 3.33333 15.8667 3.33333C15.9374 3.33333 16.0052 3.36142 16.0552 3.41143C16.1052 3.46144 16.1333 3.52927 16.1333 3.6Z" stroke="white" stroke-width="1.5" stroke-linecap="round" stroke-linejoin="round"/>
            <path d="M16.1333 7.86667C16.1333 7.91941 16.1177 7.97096 16.0884 8.01482C16.0591 8.05867 16.0174 8.09285 15.9687 8.11303C15.92 8.13322 15.8664 8.1385 15.8146 8.12821C15.7629 8.11792 15.7154 8.09252 15.6781 8.05523C15.6408 8.01793 15.6154 7.97042 15.6051 7.91869C15.5948 7.86696 15.6001 7.81334 15.6203 7.76462C15.6405 7.71589 15.6747 7.67424 15.7185 7.64494C15.7624 7.61564 15.8139 7.6 15.8667 7.6C15.9374 7.6 16.0052 7.62809 16.0552 7.6781C16.1052 7.72811 16.1333 7.79594 16.1333 7.86667Z" stroke="white" stroke-width="1.5" stroke-linecap="round" stroke-linejoin="round"/>
            <path d="M16.1333 12.1333C16.1333 12.1861 16.1177 12.2376 16.0884 12.2815C16.0591 12.3253 16.0174 12.3595 15.9687 12.3797C15.92 12.3999 15.8664 12.4052 15.8146 12.3949C15.7629 12.3846 15.7154 12.3592 15.6781 12.3219C15.6408 12.2846 15.6154 12.2371 15.6051 12.1854C15.5948 12.1336 15.6001 12.08 15.6203 12.0313C15.6405 11.9826 15.6747 11.9409 15.7185 11.9116C15.7624 11.8823 15.8139 11.8667 15.8667 11.8667C15.9374 11.8667 16.0052 11.8948 16.0552 11.9448C16.1052 11.9948 16.1333 12.0626 16.1333 12.1333Z" stroke="white" stroke-width="1.5" stroke-linecap="round" stroke-linejoin="round"/>
            <path d="M16.1333 16.4C16.1333 16.4527 16.1177 16.5043 16.0884 16.5482C16.0591 16.592 16.0174 16.6262 15.9687 16.6464C15.92 16.6665 15.8664 16.6718 15.8146 16.6615C15.7629 16.6513 15.7154 16.6259 15.6781 16.5886C15.6408 16.5513 15.6154 16.5037 15.6051 16.452C15.5948 16.4003 15.6001 16.3467 15.6203 16.2979C15.6405 16.2492 15.6747 16.2076 15.7185 16.1783C15.7624 16.149 15.8139 16.1333 15.8667 16.1333C15.9374 16.1333 16.0052 16.1614 16.0552 16.2114C16.1052 16.2614 16.1333 16.3293 16.1333 16.4Z" stroke="white" stroke-width="1.5" stroke-linecap="round" stroke-linejoin="round"/>
        </symbol>
        <symbol viewBox="0 0 32 32" id="icon-search-big">
            <g id="surface1">
                <path style=" stroke:none;fill-rule:nonzero;fill-opacity:1;" d="M 31.597656 29.707031 L 22.414062 20.519531 C 24.226562 18.347656 25.3125 15.574219 25.3125 12.546875 C 25.3125 5.632812 19.640625 0.0117188 12.664062 0.0117188 C 5.6875 0.0117188 0 5.640625 0 12.550781 C 0 19.464844 5.671875 25.085938 12.652344 25.085938 C 15.613281 25.085938 18.34375 24.066406 20.507812 22.371094 L 29.722656 31.582031 C 30.257812 32.121094 31.058594 32.121094 31.597656 31.582031 C 32.132812 31.046875 32.132812 30.246094 31.597656 29.707031 Z M 2.6875 12.550781 C 2.6875 7.121094 7.160156 2.707031 12.652344 2.707031 C 18.140625 2.707031 22.613281 7.121094 22.613281 12.550781 C 22.613281 17.980469 18.140625 22.394531 12.652344 22.394531 C 7.160156 22.394531 2.6875 17.976562 2.6875 12.550781 Z M 2.6875 12.550781 "/>
            </g>
        </symbol>
        <symbol id="icon-heart-big" viewBox="0 0 32 32">
            <g id="surface1">
                <path style=" stroke:none;fill-rule:nonzero;fill:rgb(255%,255%,255%);fill-opacity:1;" d="M 14.519531 29.605469 C 14.917969 30.003906 15.453125 30.226562 16.011719 30.226562 C 16.566406 30.226562 17.117188 29.996094 17.507812 29.605469 L 29.234375 17.878906 C 31.015625 16.097656 31.992188 13.730469 32 11.21875 C 32 8.699219 31.019531 6.328125 29.238281 4.546875 C 27.457031 2.765625 25.097656 1.789062 22.578125 1.789062 C 20.105469 1.789062 17.773438 2.734375 16.007812 4.457031 C 14.230469 2.726562 11.894531 1.773438 9.414062 1.773438 C 6.902344 1.773438 4.542969 2.753906 2.761719 4.527344 C 0.980469 6.308594 0 8.679688 0 11.199219 C 0 13.710938 0.984375 16.078125 2.765625 17.859375 Z M 3.894531 5.664062 C 5.371094 4.1875 7.335938 3.375 9.421875 3.375 C 11.511719 3.375 13.480469 4.1875 14.960938 5.671875 L 15.445312 6.152344 C 15.59375 6.304688 15.796875 6.386719 16.011719 6.386719 C 16.222656 6.386719 16.429688 6.304688 16.582031 6.152344 L 17.050781 5.683594 C 18.53125 4.203125 20.496094 3.386719 22.589844 3.386719 C 24.679688 3.386719 26.644531 4.203125 28.117188 5.675781 C 29.597656 7.160156 30.40625 9.121094 30.40625 11.210938 C 30.40625 13.296875 29.59375 15.261719 28.109375 16.742188 L 16.378906 28.476562 C 16.1875 28.664062 15.84375 28.664062 15.648438 28.476562 L 3.902344 16.730469 C 2.421875 15.25 1.605469 13.285156 1.605469 11.199219 C 1.605469 9.109375 2.421875 7.144531 3.894531 5.664062 Z M 3.894531 5.664062 "/>
            </g>
        </symbol>
        <symbol id="icon-movie-big" viewBox="0 0 32 32">
            <g id="surface1">
                <path style=" stroke:none;fill-rule:nonzero;fill:rgb(255%,255%,255%);fill-opacity:1;" d="M 30.929688 30.039062 C 30.558594 29.660156 29.851562 28.855469 29.277344 27.746094 C 28.199219 25.65625 28.042969 23.460938 28.808594 21.210938 C 29.601562 18.894531 29.984375 16.671875 29.957031 14.601562 L 29.957031 14.523438 C 29.957031 6.515625 23.441406 0 15.433594 0 C 7.425781 0 0.914062 6.515625 0.914062 14.523438 C 0.914062 22.53125 7.425781 29.042969 15.433594 29.042969 C 19.4375 29.042969 23.167969 27.449219 25.933594 24.554688 C 26.019531 26.070312 26.4375 27.550781 27.175781 28.949219 C 27.925781 30.371094 28.832031 31.371094 29.304688 31.839844 C 29.386719 31.921875 29.5 31.96875 29.617188 31.96875 C 29.625 31.96875 29.628906 31.96875 29.636719 31.96875 C 29.761719 31.960938 29.878906 31.90625 29.957031 31.808594 L 30.949219 30.636719 C 31.097656 30.460938 31.089844 30.203125 30.929688 30.039062 Z M 9.261719 10.957031 C 8.835938 11.691406 8.046875 12.144531 7.199219 12.144531 C 6.785156 12.144531 6.375 12.035156 6.015625 11.828125 C 5.464844 11.511719 5.070312 10.996094 4.90625 10.386719 C 4.742188 9.773438 4.828125 9.132812 5.144531 8.582031 C 5.566406 7.847656 6.359375 7.394531 7.207031 7.394531 C 7.621094 7.394531 8.03125 7.503906 8.390625 7.710938 C 9.527344 8.367188 9.917969 9.824219 9.261719 10.957031 Z M 4.90625 18.660156 C 5.070312 18.046875 5.464844 17.535156 6.015625 17.21875 C 6.375 17.007812 6.785156 16.898438 7.199219 16.898438 C 8.046875 16.898438 8.835938 17.355469 9.261719 18.085938 C 9.917969 19.222656 9.527344 20.679688 8.390625 21.332031 C 8.03125 21.542969 7.621094 21.652344 7.207031 21.652344 C 6.359375 21.652344 5.566406 21.195312 5.144531 20.464844 C 4.828125 19.914062 4.742188 19.273438 4.90625 18.660156 Z M 15.433594 21.652344 C 16.070312 21.652344 16.667969 21.898438 17.117188 22.347656 C 17.5625 22.796875 17.8125 23.394531 17.8125 24.027344 C 17.8125 25.339844 16.746094 26.40625 15.433594 26.40625 C 14.125 26.40625 13.058594 25.339844 13.058594 24.027344 C 13.058594 22.71875 14.125 21.652344 15.433594 21.652344 Z M 15.433594 7.394531 C 14.125 7.394531 13.058594 6.328125 13.058594 5.015625 C 13.058594 3.707031 14.125 2.640625 15.433594 2.640625 C 16.746094 2.640625 17.8125 3.707031 17.8125 5.015625 C 17.8125 6.328125 16.746094 7.394531 15.433594 7.394531 Z M 15.433594 11.421875 C 17.144531 11.421875 18.539062 12.8125 18.539062 14.523438 C 18.539062 16.234375 17.144531 17.625 15.433594 17.625 C 13.722656 17.625 12.332031 16.234375 12.332031 14.523438 C 12.332031 12.8125 13.722656 11.421875 15.433594 11.421875 Z M 24.855469 11.828125 C 24.492188 12.035156 24.085938 12.144531 23.667969 12.144531 C 22.820312 12.144531 22.03125 11.691406 21.609375 10.957031 C 20.953125 9.824219 21.34375 8.367188 22.480469 7.710938 C 22.839844 7.503906 23.25 7.394531 23.664062 7.394531 C 24.511719 7.394531 25.300781 7.847656 25.726562 8.582031 C 26.378906 9.714844 25.988281 11.171875 24.855469 11.828125 Z M 21.609375 18.085938 C 22.03125 17.355469 22.820312 16.898438 23.667969 16.898438 C 24.082031 16.898438 24.492188 17.007812 24.855469 17.21875 C 25.402344 17.535156 25.796875 18.046875 25.960938 18.660156 C 26.125 19.273438 26.042969 19.914062 25.726562 20.464844 C 25.300781 21.195312 24.511719 21.652344 23.664062 21.652344 C 23.25 21.652344 22.839844 21.542969 22.480469 21.332031 C 21.34375 20.679688 20.953125 19.222656 21.609375 18.085938 Z M 21.609375 18.085938 "/>
            </g>
        </symbol>
        <symbol id="icon-profile-big" viewBox="0 0 32 32">
            <g id="surface1">
                <path style=" stroke:none;fill-rule:nonzero;fill:rgb(255%,255%,255%);fill-opacity:1;" d="M 23.550781 7.957031 C 23.550781 12.125 20.171875 15.507812 16 15.507812 C 11.828125 15.507812 8.449219 12.125 8.449219 7.957031 C 8.449219 3.785156 11.828125 0.402344 16 0.402344 C 20.171875 0.402344 23.550781 3.785156 23.550781 7.957031 Z M 23.550781 7.957031 "/>
                <path style=" stroke:none;fill-rule:nonzero;fill:rgb(255%,255%,255%);fill-opacity:1;" d="M 24.984375 16.675781 C 24.867188 16.597656 24.625 16.441406 24.625 16.441406 C 22.695312 19.121094 19.546875 20.867188 16 20.867188 C 12.453125 20.867188 9.304688 19.121094 7.375 16.441406 C 7.375 16.441406 7.171875 16.570312 7.074219 16.640625 C 2.804688 19.511719 0 24.386719 0 29.917969 L 0 31.597656 L 32 31.597656 L 32 29.917969 C 32 24.414062 29.21875 19.554688 24.984375 16.675781 Z M 24.984375 16.675781 "/>
            </g>
        </symbol>
        <symbol id="icon-settings-big" viewBox="0 0 32 32">
            <g id="surface1">
                <path style=" stroke:none;fill-rule:nonzero;fill:rgb(255%,255%,255%);fill-opacity:1;" d="M 31.152344 12.507812 L 26.628906 12.507812 C 26.453125 11.972656 26.238281 11.453125 25.984375 10.953125 L 29.183594 7.753906 C 29.515625 7.421875 29.515625 6.886719 29.183594 6.554688 L 25.445312 2.816406 C 25.113281 2.484375 24.578125 2.484375 24.246094 2.816406 L 21.046875 6.015625 C 20.546875 5.761719 20.027344 5.546875 19.492188 5.367188 L 19.492188 0.847656 C 19.492188 0.378906 19.113281 0 18.644531 0 L 13.355469 0 C 12.886719 0 12.507812 0.378906 12.507812 0.847656 L 12.507812 5.367188 C 11.972656 5.546875 11.449219 5.761719 10.953125 6.015625 L 7.753906 2.816406 C 7.421875 2.484375 6.886719 2.484375 6.554688 2.816406 L 2.816406 6.554688 C 2.484375 6.886719 2.484375 7.421875 2.816406 7.753906 L 6.015625 10.953125 C 5.761719 11.453125 5.546875 11.972656 5.367188 12.507812 L 0.847656 12.507812 C 0.378906 12.507812 0 12.886719 0 13.355469 L 0 18.644531 C 0 19.113281 0.378906 19.492188 0.847656 19.492188 L 5.367188 19.492188 C 5.546875 20.027344 5.761719 20.546875 6.015625 21.046875 L 2.816406 24.246094 C 2.484375 24.578125 2.484375 25.113281 2.816406 25.445312 L 6.554688 29.183594 C 6.886719 29.515625 7.421875 29.515625 7.753906 29.183594 L 10.953125 25.984375 C 11.449219 26.238281 11.972656 26.453125 12.507812 26.632812 L 12.507812 31.152344 C 12.507812 31.621094 12.886719 32 13.355469 32 L 18.644531 32 C 19.113281 32 19.492188 31.621094 19.492188 31.152344 L 19.492188 26.632812 C 20.027344 26.453125 20.546875 26.238281 21.046875 25.984375 L 24.246094 29.183594 C 24.578125 29.515625 25.113281 29.515625 25.445312 29.183594 L 29.183594 25.445312 C 29.515625 25.113281 29.515625 24.578125 29.183594 24.246094 L 25.984375 21.046875 C 26.238281 20.550781 26.453125 20.027344 26.632812 19.492188 L 31.152344 19.492188 C 31.621094 19.492188 32 19.113281 32 18.644531 L 32 13.355469 C 32 12.886719 31.621094 12.507812 31.152344 12.507812 Z M 16 20.214844 C 13.671875 20.214844 11.785156 18.328125 11.785156 16 C 11.785156 13.671875 13.671875 11.785156 16 11.785156 C 18.328125 11.785156 20.214844 13.671875 20.214844 16 C 20.214844 18.328125 18.328125 20.214844 16 20.214844 Z M 16 20.214844 "/>
            </g>
        </symbol>
    </defs>
</svg>
